<svg width="24" height="24" fill="none" xmlns="http://www.w3.org/2000/svg"><path d="M7.75 11.083a.75.75 0 0 1-.75-.75C7 7.393 9.243 5 12 5a.75.75 0 0 1 0 1.5c-1.93 0-3.5 1.72-3.5 3.833a.75.75 0 0 1-.75.75Z" fill="#000"/><path d="M20.75 10.333c0-5.01-3.925-9.083-8.75-9.083s-8.75 4.074-8.75 9.083c0 4.605 3.32 8.412 7.605 8.997l-1.7 1.83a.496.496 0 0 0-.093.54c.08.182.26.3.46.3h4.957a.499.499 0 0 0 .365-.84l-1.7-1.83c4.285-.585 7.605-4.392 7.605-8.997h.001ZM12 17.917c-3.998 0-7.25-3.402-7.25-7.584C4.75 6.151 8.002 2.75 12 2.75s7.25 3.4 7.25 7.583-3.252 7.584-7.25 7.584Z" fill="#000"/></svg>