<svg width="24" height="24" fill="none" xmlns="http://www.w3.org/2000/svg"><mask id="a" style="mask-type:alpha" maskUnits="userSpaceOnUse" x="0" y="0" width="24" height="24"><path fill="#C4C4C4" d="M0 0h24v24H0z"/></mask><g mask="url(#a)" fill="#536471"><path d="m17.53 7.22-5-5a.749.749 0 0 0-1.06 0l-5 5a.749.749 0 1 0 1.06 1.06l3.72-3.72v10.19a.75.75 0 0 0 1.5 0V4.56l3.72 3.72c.146.147.338.22.53.22a.749.749 0 0 0 .53-1.28Z"/><path d="M19.708 21.694H4.292A2.294 2.294 0 0 1 2 19.402V13.75a.75.75 0 0 1 1.5 0v5.652c0 .437.355.792.792.792h15.416a.793.793 0 0 0 .792-.792V13.75a.75.75 0 0 1 1.5 0v5.652a2.294 2.294 0 0 1-2.292 2.292Z"/></g></svg>