<svg width="28" height="28" fill="none" xmlns="http://www.w3.org/2000/svg"><mask id="a" style="mask-type:alpha" maskUnits="userSpaceOnUse" x="0" y="0" width="28" height="28"><path fill="#C4C4C4" d="M0 0h28v28H0z"/></mask><g mask="url(#a)"><path d="M26.46 8.835 14.67 2.473a1.167 1.167 0 0 0-1.107 0L1.779 8.835a1.169 1.169 0 0 0 .554 2.195c.187 0 .378-.045.555-.14l.856-.462 1.855 13.125c.252 1.416 1.528 2.405 3.103 2.405h10.83c1.574 0 2.85-.989 3.105-2.436l1.853-13.095.86.464a1.165 1.165 0 0 0 1.58-.472 1.168 1.168 0 0 0-.472-1.58l.002-.004Zm-12.343 9.433a3.792 3.792 0 1 1 0-7.583 3.792 3.792 0 0 1 0 7.583Z" fill="#000"/></g></svg>