<svg width="24" height="24" fill="none" xmlns="http://www.w3.org/2000/svg"><path d="M19.708 2H4.292A2.294 2.294 0 0 0 2 4.292v15.416A2.294 2.294 0 0 0 4.292 22h15.416A2.294 2.294 0 0 0 22 19.708V4.292A2.294 2.294 0 0 0 19.708 2Zm.792 17.708a.793.793 0 0 1-.792.792H4.292a.793.793 0 0 1-.792-.792V6.418c0-.437.354-.79.79-.792h15.42c.436 0 .79.355.79.79V19.71v-.002Z" fill="#000"/><path d="M7.032 10.035a1.285 1.285 0 1 0 0-2.57 1.285 1.285 0 0 0 0 2.57ZM7.032 14.441a1.285 1.285 0 1 0 0-2.57 1.285 1.285 0 0 0 0 2.57ZM16.968 10.035a1.285 1.285 0 1 0 0-2.57 1.285 1.285 0 0 0 0 2.57ZM16.968 14.441a1.285 1.285 0 1 0 0-2.57 1.285 1.285 0 0 0 0 2.57ZM12 10.035a1.285 1.285 0 1 0 0-2.57 1.285 1.285 0 0 0 0 2.57ZM12 14.441a1.285 1.285 0 1 0 0-2.57 1.285 1.285 0 0 0 0 2.57ZM7.032 18.771a1.285 1.285 0 1 0 0-2.57 1.285 1.285 0 0 0 0 2.57ZM12 18.771a1.285 1.285 0 1 0 0-2.57 1.285 1.285 0 0 0 0 2.57Z" fill="#000"/></svg>