<svg width="24" height="24" fill="none" xmlns="http://www.w3.org/2000/svg"><mask id="a" style="mask-type:alpha" maskUnits="userSpaceOnUse" x="0" y="0" width="24" height="24"><path fill="#C4C4C4" d="M0 0h24v24H0z"/></mask><g mask="url(#a)"><path d="M23.759 15.77a.749.749 0 0 0-1.06 0l-2.22 2.22V7.75A3.755 3.755 0 0 0 16.729 4h-5.85a.75.75 0 0 0 0 1.5h5.85c1.24 0 2.25 1.01 2.25 2.25v10.24l-2.22-2.22a.749.749 0 1 0-1.06 1.06l3.5 3.5a.74.74 0 0 0 .53.22.74.74 0 0 0 .53-.22l3.5-3.5a.747.747 0 0 0 0-1.06Zm-10.66 3.28h-5.85c-1.24 0-2.25-1.01-2.25-2.25V6.56l2.22 2.22a.752.752 0 0 0 1.061 0 .749.749 0 0 0 0-1.06l-3.5-3.5a.747.747 0 0 0-1.06 0l-3.5 3.5a.749.749 0 1 0 1.06 1.06L3.5 6.56V16.8a3.755 3.755 0 0 0 3.75 3.75h5.85a.75.75 0 0 0 0-1.5h-.002Z" fill="#0CB345"/></g></svg>