<svg width="24" height="24" fill="none" xmlns="http://www.w3.org/2000/svg"><mask id="a" style="mask-type:alpha" maskUnits="userSpaceOnUse" x="0" y="0" width="24" height="24"><path fill="#C4C4C4" d="M0 0h24v24H0z"/></mask><g mask="url(#a)" fill="#1D9BF0"><path d="M11.75 22.5C5.822 22.5 1 17.678 1 11.75S5.822 1 11.75 1 22.5 5.822 22.5 11.75 17.678 22.5 11.75 22.5Zm0-20c-5.1 0-9.25 4.15-9.25 9.25S6.65 21 11.75 21 21 16.85 21 11.75 16.85 2.5 11.75 2.5Z"/><path d="M11.75 16.865a5.509 5.509 0 0 1-4.656-2.544.748.748 0 0 1 .226-1.035.747.747 0 0 1 1.036.226 4.02 4.02 0 0 0 3.395 1.855 4.024 4.024 0 0 0 3.396-1.854.747.747 0 0 1 1.036-.225c.35.224.45.688.226 1.036a5.516 5.516 0 0 1-4.658 2.545v-.004ZM14.488 10.686a1.478 1.478 0 1 0 0-2.956 1.478 1.478 0 0 0 0 2.956ZM9.012 10.686a1.478 1.478 0 1 0 0-2.956 1.478 1.478 0 0 0 0 2.956Z"/></g></svg>